<svg width="49" height="51" viewBox="0 0 49 51" fill="none" xmlns="http://www.w3.org/2000/svg">
<path d="M47.7958 31.6872L43.4507 29.2679C43.9559 26.8486 43.9559 24.5301 43.4507 22.1108L47.7958 19.6915C48.3011 19.3891 48.5032 18.7843 48.3011 18.2803C47.1895 14.6513 45.2696 11.4256 42.8444 8.7039C42.4402 8.30069 41.8339 8.19988 41.3287 8.5023L36.9836 10.9216C35.1647 9.40953 33.1437 8.19988 30.9206 7.39345V2.45405C30.9206 1.95003 30.5164 1.44601 29.9101 1.34521C26.1713 0.437971 22.4325 0.538775 18.8958 1.34521C18.2895 1.44601 17.9863 1.95003 17.9863 2.45405V7.39345C15.6622 8.19988 13.6412 9.40953 11.8223 11.0224L7.4772 8.5023C6.97196 8.19988 6.36566 8.30069 5.96147 8.7039C3.53629 11.4256 1.61635 14.6513 0.504813 18.2803C0.302715 18.7843 0.504813 19.3891 1.01006 19.6915L5.35517 22.1108C4.95098 24.5301 4.95098 26.8486 5.35517 29.2679L1.01006 31.6872C0.504813 31.9896 0.302715 32.5945 0.504813 33.0985C1.61635 36.7274 3.53629 39.9532 5.96147 42.6749C6.36566 43.0781 6.97196 43.1789 7.4772 42.8765L11.8223 40.4572C13.6412 41.9692 15.6622 43.1789 17.9863 43.9853V48.9247C17.9863 49.4287 18.3905 49.9328 18.8958 50.1344C22.6346 50.9408 26.3734 50.84 29.9101 50.1344C30.5164 49.9328 30.9206 49.4287 30.9206 48.9247V43.9853C33.1437 43.1789 35.1647 41.9692 36.9836 40.4572L41.3287 42.8765C41.8339 43.1789 42.4402 43.0781 42.8444 42.6749C45.3706 39.9532 47.1895 36.7274 48.4021 33.0985C48.5032 32.5945 48.3011 31.9896 47.7958 31.6872ZM24.4535 33.7033C19.9062 33.7033 16.3695 30.1752 16.3695 25.639C16.3695 21.2036 19.9062 17.5747 24.4535 17.5747C28.8996 17.5747 32.5374 21.2036 32.5374 25.639C32.5374 30.1752 28.8996 33.7033 24.4535 33.7033Z" fill="#323238"/>
</svg>
