<svg xmlns="http://www.w3.org/2000/svg" xmlns:xlink="http://www.w3.org/1999/xlink" width="48" height="48" viewBox="0 0 48 48">
  <defs>
    <clipPath id="clip-path">
      <rect id="Retângulo_1" data-name="Retângulo 1" width="24" height="24" transform="translate(12 12)" fill="#fff"/>
    </clipPath>
    <clipPath id="clip-instagram">
      <rect width="48" height="48"/>
    </clipPath>
  </defs>
  <g id="instagram" clip-path="url(#clip-instagram)">
    <g id="instagram-2" data-name="instagram" transform="translate(0 0)" clip-path="url(#clip-path)">
      <path id="Subtração_1" data-name="Subtração 1" d="M13.276,24H10.724c-1.108,0-2.4-.006-3.676-.079l-.158,0a7.069,7.069,0,0,1-4.874-1.939A7.046,7.046,0,0,1,.079,16.953C0,15.51,0,14.051,0,12.64V11.36C0,9.949,0,8.49.079,7.048A7.047,7.047,0,0,1,2.016,2.016,7.062,7.062,0,0,1,6.887.077l.161,0C8.331.006,9.618,0,10.724,0h2.552c1.108,0,2.4.006,3.677.079l.161,0a7.058,7.058,0,0,1,4.87,1.939,7.05,7.05,0,0,1,1.937,5.032C24,8.49,24,9.949,24,11.361V12.64c0,1.411,0,2.87-.079,4.315a7.046,7.046,0,0,1-1.937,5.031,7.062,7.062,0,0,1-4.87,1.939l-.161,0C15.669,24,14.381,24,13.276,24ZM12,5.844a6.154,6.154,0,1,0,2.355.469A6.175,6.175,0,0,0,12,5.844Zm6.4-1.689a1.433,1.433,0,1,0,.55.109A1.437,1.437,0,0,0,18.405,4.155ZM12,16a4,4,0,0,1,0-8,4,4,0,1,1,0,8Z" transform="translate(12 12)" fill="#fff"/>
    </g>
  </g>
</svg>
